<svg width="46" height="45" viewBox="0 0 46 45" fill="none" xmlns="http://www.w3.org/2000/svg">
<path fill-rule="evenodd" clip-rule="evenodd" d="M16 18.8118C16 17.155 17.3431 15.8118 19 15.8118H29C30.6569 15.8118 32 17.155 32 18.8118C32.5523 18.8118 33 19.2595 33 19.8118V21.8118C33 22.3641 32.5523 22.8118 32 22.8118V28.8118C32 29.9164 31.1046 30.8118 30 30.8118V32.8118C30 33.3641 29.5523 33.8118 29 33.8118H28C27.4477 33.8118 27 33.3641 27 32.8118V30.8118H21V32.8118C21 33.3641 20.5523 33.8118 20 33.8118H19C18.4477 33.8118 18 33.3641 18 32.8118V30.8118C16.8954 30.8118 16 29.9164 16 28.8118V22.8118C15.4477 22.8118 15 22.3641 15 21.8118V19.8118C15 19.2595 15.4477 18.8118 16 18.8118ZM21.5 17.8118C21.5 17.5357 21.7239 17.3118 22 17.3118H26C26.2761 17.3118 26.5 17.5357 26.5 17.8118C26.5 18.088 26.2761 18.3118 26 18.3118H22C21.7239 18.3118 21.5 18.088 21.5 17.8118ZM28.5 28.8118C29.3284 28.8118 30 28.1403 30 27.3118C30 26.4834 29.3284 25.8118 28.5 25.8118C27.6716 25.8118 27 26.4834 27 27.3118C27 28.1403 27.6716 28.8118 28.5 28.8118ZM21 27.3118C21 28.1403 20.3284 28.8118 19.5 28.8118C18.6716 28.8118 18 28.1403 18 27.3118C18 26.4834 18.6716 25.8118 19.5 25.8118C20.3284 25.8118 21 26.4834 21 27.3118ZM19 19.8118C18.4477 19.8118 18 20.2595 18 20.8118V22.8118C18 23.3641 18.4477 23.8118 19 23.8118H23V19.8118H19ZM25 19.8118H29C29.5523 19.8118 30 20.2595 30 20.8118V22.8118C30 23.3641 29.5523 23.8118 29 23.8118H25V19.8118Z" fill="#222222"/>
</svg>
