<svg width="414" height="489" viewBox="0 0 414 489" fill="none" xmlns="http://www.w3.org/2000/svg">
<g filter="url(#filter0_d_13_229)">
<path d="M26 131C26 125.477 30.4772 121 36 121H380C385.523 121 390 125.477 390 131V226.563C390 228.018 389.683 229.454 389.07 230.774L385.418 238.642C383.921 241.868 384.25 245.647 386.282 248.566L388.207 251.33C389.374 253.007 390 255.001 390 257.044V298C390 303.523 385.523 308 380 308H36C30.4772 308 26 303.523 26 298V257.728C26 255.266 26.9077 252.892 28.5493 251.058L30.0949 249.331C33.0129 246.071 33.4732 241.293 31.2312 237.537L27.4129 231.139C26.4882 229.589 26 227.818 26 226.014V131Z" fill="white"/>
<path d="M26 131C26 125.477 30.4772 121 36 121H380C385.523 121 390 125.477 390 131V226.563C390 228.018 389.683 229.454 389.07 230.774L385.418 238.642C383.921 241.868 384.25 245.647 386.282 248.566L388.207 251.33C389.374 253.007 390 255.001 390 257.044V298C390 303.523 385.523 308 380 308H36C30.4772 308 26 303.523 26 298V257.728C26 255.266 26.9077 252.892 28.5493 251.058L30.0949 249.331C33.0129 246.071 33.4732 241.293 31.2312 237.537L27.4129 231.139C26.4882 229.589 26 227.818 26 226.014V131Z" stroke="#EEEEEE"/>
</g>
<defs>
<filter id="filter0_d_13_229" x="-124.5" y="0.5" width="665" height="488" filterUnits="userSpaceOnUse" color-interpolation-filters="sRGB">
<feFlood flood-opacity="0" result="BackgroundImageFix"/>
<feColorMatrix in="SourceAlpha" type="matrix" values="0 0 0 0 0 0 0 0 0 0 0 0 0 0 0 0 0 0 127 0" result="hardAlpha"/>
<feOffset dy="30"/>
<feGaussianBlur stdDeviation="75"/>
<feColorMatrix type="matrix" values="0 0 0 0 0.541176 0 0 0 0 0.584314 0 0 0 0 0.619608 0 0 0 0.1 0"/>
<feBlend mode="normal" in2="BackgroundImageFix" result="effect1_dropShadow_13_229"/>
<feBlend mode="normal" in="SourceGraphic" in2="effect1_dropShadow_13_229" result="shape"/>
</filter>
</defs>
</svg>
