<svg width="261" height="242" viewBox="0 0 261 242" fill="none" xmlns="http://www.w3.org/2000/svg">
<path fill-rule="evenodd" clip-rule="evenodd" d="M0 215.884H261V215.683H0V215.884Z" fill="#ECECEC"/>
<path fill-rule="evenodd" clip-rule="evenodd" d="M205.071 225.564H214.02V225.362H205.071V225.564Z" fill="#ECECEC"/>
<path fill-rule="evenodd" clip-rule="evenodd" d="M171.514 223.144H191.649V222.942H171.514V223.144Z" fill="#ECECEC"/>
<path fill-rule="evenodd" clip-rule="evenodd" d="M138.703 219.917H174.497V219.716H138.703V219.917Z" fill="#ECECEC"/>
<path fill-rule="evenodd" clip-rule="evenodd" d="M27.5914 220.724H34.3029V220.523H27.5914V220.724Z" fill="#ECECEC"/>
<path fill-rule="evenodd" clip-rule="evenodd" d="M38.7771 220.724H57.42V220.523H38.7771V220.724Z" fill="#ECECEC"/>
<path fill-rule="evenodd" clip-rule="evenodd" d="M79.7914 223.144H110.366V222.942H79.7914V223.144Z" fill="#ECECEC"/>
<path fill-rule="evenodd" clip-rule="evenodd" d="M22.9236 31.4607C21.3524 31.4607 20.0746 32.8448 20.0746 34.5467V188.019C20.0746 189.721 21.3524 191.105 22.9236 191.105H123.721C125.291 191.105 126.57 189.721 126.57 188.019V34.5467C126.57 32.8448 125.291 31.4607 123.721 31.4607H22.9236ZM123.721 191.247H22.9236C21.2809 191.247 19.9441 189.799 19.9441 188.019V34.5467C19.9441 32.7674 21.2809 31.3193 22.9236 31.3193H123.721C125.364 31.3193 126.7 32.7674 126.7 34.5467V188.019C126.7 189.799 125.364 191.247 123.721 191.247Z" fill="#ECECEC"/>
<path fill-rule="evenodd" clip-rule="evenodd" d="M135.831 31.4607C134.26 31.4607 132.982 32.8448 132.982 34.5467V188.019C132.982 189.721 134.26 191.105 135.831 191.105H236.628C238.199 191.105 239.477 189.721 239.477 188.019V34.5467C239.477 32.8448 238.199 31.4607 236.628 31.4607H135.831ZM236.628 191.247H135.831C134.188 191.247 132.852 189.799 132.852 188.019V34.5467C132.852 32.7674 134.188 31.3193 135.831 31.3193H236.628C238.271 31.3193 239.608 32.7674 239.608 34.5467V188.019C239.608 189.799 238.271 191.247 236.628 191.247Z" fill="#ECECEC"/>
<mask id="mask0_1_8" style="mask-type:alpha" maskUnits="userSpaceOnUse" x="0" y="0" width="261" height="242">
<path fill-rule="evenodd" clip-rule="evenodd" d="M0 242H261V0.248215H0V242Z" fill="white"/>
</mask>
<g mask="url(#mask0_1_8)">
<path fill-rule="evenodd" clip-rule="evenodd" d="M122.098 216.464H133.35V0.248215H122.098V216.464Z" fill="#F5F5F5"/>
<path fill-rule="evenodd" clip-rule="evenodd" d="M133.35 216.464H134.93V0.248215H133.35V216.464Z" fill="#E1E1E1"/>
<path fill-rule="evenodd" clip-rule="evenodd" d="M72.6452 194.687H13.311C13.311 190.731 16.2713 187.525 19.9232 187.525H72.6452V194.687Z" fill="#E7E7E7"/>
<path fill-rule="evenodd" clip-rule="evenodd" d="M76.9953 194.687H51.0691C51.0691 190.731 54.0294 187.525 57.6813 187.525H76.9953V194.687Z" fill="#E1E1E1"/>
<path fill-rule="evenodd" clip-rule="evenodd" d="M114.102 194.687H54.7682C54.7682 190.731 57.7285 187.525 61.3804 187.525H114.102V194.687Z" fill="#E7E7E7"/>
<path fill-rule="evenodd" clip-rule="evenodd" d="M118.452 194.687H92.5263C92.5263 190.731 95.4865 187.525 99.1384 187.525H118.452V194.687Z" fill="#E1E1E1"/>
<path fill-rule="evenodd" clip-rule="evenodd" d="M198.337 194.687H139.003C139.003 190.731 141.963 187.525 145.615 187.525H198.337V194.687Z" fill="#E7E7E7"/>
<path fill-rule="evenodd" clip-rule="evenodd" d="M202.687 194.687H176.761C176.761 190.731 179.721 187.525 183.373 187.525H202.687V194.687Z" fill="#E1E1E1"/>
<path fill-rule="evenodd" clip-rule="evenodd" d="M223.635 172.324H197.358L201.057 216.464H219.936L223.635 172.324Z" fill="#ECECEC"/>
<path fill-rule="evenodd" clip-rule="evenodd" d="M210.236 179.683C209.753 161.423 213.698 123.612 220.746 108.23L221.214 108.482C214.446 123.251 210.27 161.254 210.758 179.667L210.236 179.683Z" fill="#ECECEC"/>
<path fill-rule="evenodd" clip-rule="evenodd" d="M212.844 143.728C212.844 143.728 211.12 126.049 204.74 120.625C201.318 131.786 208.324 135.635 212.844 143.728Z" fill="#ECECEC"/>
<path fill-rule="evenodd" clip-rule="evenodd" d="M204.871 121.107C202.609 128.94 205.674 133.075 209.212 137.852C210.294 139.313 211.407 140.814 212.435 142.499C211.908 138.455 209.894 125.789 204.871 121.107ZM212.844 144.011C212.755 144.011 212.669 143.96 212.621 143.874C211.445 141.768 210.103 139.957 208.806 138.206C205.112 133.221 201.923 128.917 204.492 120.536C204.519 120.448 204.584 120.381 204.665 120.354C204.746 120.328 204.834 120.346 204.901 120.403C211.294 125.838 213.033 142.971 213.103 143.698C213.116 143.83 213.043 143.954 212.927 143.996C212.9 144.006 212.872 144.011 212.844 144.011Z" fill="#ECECEC"/>
<path fill-rule="evenodd" clip-rule="evenodd" d="M213.793 137.031C213.793 137.031 220.561 120.685 228.218 117.788C228.123 129.548 220.487 130.957 213.793 137.031Z" fill="#ECECEC"/>
<path fill-rule="evenodd" clip-rule="evenodd" d="M227.951 118.199C221.782 120.882 216.173 132.382 214.521 136.032C215.945 134.832 217.387 133.815 218.791 132.825C223.593 129.438 227.751 126.506 227.951 118.199ZM213.793 137.314C213.738 137.314 213.682 137.295 213.635 137.257C213.539 137.177 213.505 137.035 213.555 136.915C213.833 136.243 220.457 120.425 228.132 117.521C228.212 117.491 228.301 117.504 228.37 117.558C228.439 117.612 228.48 117.698 228.479 117.79C228.407 126.717 224.082 129.768 219.075 133.299C217.39 134.488 215.647 135.717 213.96 137.248C213.912 137.292 213.852 137.314 213.793 137.314Z" fill="#ECECEC"/>
<path fill-rule="evenodd" clip-rule="evenodd" d="M210.647 168.614C210.647 168.614 208.032 144.016 200.112 137.524C196.145 151.27 204.951 158.811 210.647 168.614Z" fill="#ECECEC"/>
<path fill-rule="evenodd" clip-rule="evenodd" d="M200.282 138.113C197.494 148.462 202.094 155.195 206.96 162.319C208.025 163.879 209.12 165.481 210.142 167.136C209.43 161.792 206.617 143.883 200.282 138.113ZM210.647 168.96C210.54 168.96 210.437 168.902 210.377 168.799C209.159 166.703 207.78 164.684 206.446 162.731C201.405 155.351 196.644 148.381 199.807 137.421C199.838 137.313 199.916 137.229 200.014 137.195C200.115 137.16 200.222 137.18 200.305 137.248C208.243 143.755 210.857 167.564 210.965 168.575C210.982 168.735 210.894 168.887 210.753 168.941C210.718 168.954 210.682 168.96 210.647 168.96Z" fill="#ECECEC"/>
<path fill-rule="evenodd" clip-rule="evenodd" d="M211.56 155.353C211.56 155.353 220.391 137.835 229.708 134.108C229.826 148.509 219.634 147.759 211.56 155.353Z" fill="#ECECEC"/>
<path fill-rule="evenodd" clip-rule="evenodd" d="M229.388 134.615C222.104 137.872 215.1 149.581 212.707 153.903C214.847 152.153 217.062 150.888 219.217 149.657C224.621 146.572 229.301 143.899 229.388 134.615ZM211.56 155.699C211.489 155.699 211.418 155.674 211.36 155.623C211.239 155.517 211.206 155.334 211.279 155.187C211.642 154.467 220.275 137.512 229.598 133.783C229.695 133.744 229.804 133.759 229.89 133.823C229.976 133.887 230.027 133.992 230.028 134.105C230.111 144.22 225.2 147.024 219.515 150.27C216.933 151.744 214.263 153.269 211.769 155.615C211.709 155.671 211.635 155.699 211.56 155.699Z" fill="#ECECEC"/>
<path fill-rule="evenodd" clip-rule="evenodd" d="M215.719 125.846C215.719 125.846 214.516 113.513 210.065 109.729C207.678 117.516 212.566 120.2 215.719 125.846Z" fill="#ECECEC"/>
<path fill-rule="evenodd" clip-rule="evenodd" d="M210.157 110.066C208.579 115.53 210.717 118.415 213.185 121.747C213.94 122.766 214.716 123.813 215.434 124.989C215.066 122.167 213.661 113.332 210.157 110.066ZM215.719 126.043C215.657 126.043 215.597 126.008 215.563 125.948C214.743 124.479 213.807 123.216 212.901 121.994C210.325 118.517 208.1 115.514 209.893 109.667C209.911 109.606 209.956 109.559 210.013 109.54C210.07 109.521 210.132 109.534 210.178 109.574C214.638 113.366 215.851 125.319 215.9 125.826C215.909 125.917 215.858 126.003 215.777 126.033C215.758 126.04 215.738 126.043 215.719 126.043Z" fill="#ECECEC"/>
<path fill-rule="evenodd" clip-rule="evenodd" d="M217.79 117.541C217.79 117.541 222.511 106.138 227.853 104.117C227.786 112.321 222.46 113.304 217.79 117.541Z" fill="#ECECEC"/>
<path fill-rule="evenodd" clip-rule="evenodd" d="M227.666 104.404C223.363 106.276 219.45 114.298 218.298 116.844C219.291 116.008 220.297 115.298 221.276 114.607C224.626 112.244 227.527 110.198 227.666 104.404ZM217.79 117.738C217.751 117.738 217.712 117.725 217.68 117.699C217.612 117.643 217.589 117.544 217.624 117.461C217.818 116.992 222.439 105.957 227.793 103.931C227.849 103.91 227.911 103.92 227.959 103.956C228.007 103.994 228.035 104.055 228.035 104.119C227.984 110.346 224.968 112.474 221.475 114.938C220.299 115.767 219.084 116.625 217.907 117.693C217.873 117.723 217.831 117.738 217.79 117.738Z" fill="#ECECEC"/>
<path fill-rule="evenodd" clip-rule="evenodd" d="M81.4529 110.324C76.4902 109.947 74.3437 110.575 72.1978 105.737C70.0519 100.9 62.569 98.3101 60.1323 102.526C57.6961 106.743 56.8259 109.676 51.1993 107.173C45.5732 104.669 43.717 106.491 42.9047 109.822C42.093 113.151 29.2153 111.546 32.9857 116.307H80.6667C80.6667 116.307 86.4155 110.701 81.4529 110.324Z" fill="#F5F5F5"/>
<path fill-rule="evenodd" clip-rule="evenodd" d="M229.054 84.4766C226.246 84.2634 225.032 84.6185 223.817 81.8819C222.603 79.1441 218.37 77.6797 216.991 80.0646C215.613 82.4507 215.121 84.1096 211.937 82.6938C208.754 81.2775 207.704 82.3082 207.244 84.1922C206.784 86.0767 199.499 85.1681 201.632 87.8618H228.609C228.609 87.8618 231.862 84.6898 229.054 84.4766Z" fill="#F5F5F5"/>
<path fill-rule="evenodd" clip-rule="evenodd" d="M195.446 18.1822C194.053 15.7311 190.072 14.9135 186.509 16.8201C182.946 18.7267 185.373 6.78272 178.713 8.78488C169.2 11.6448 171.849 20.1917 167.885 19.4074C163.921 18.6232 152.302 20.7249 158.445 24.9915H193.604C193.604 24.9915 196.838 20.6338 195.446 18.1822Z" fill="#F5F5F5"/>
</g>
<mask id="mask1_1_8" style="mask-type:alpha" maskUnits="userSpaceOnUse" x="29" y="229" width="204" height="13">
<path fill-rule="evenodd" clip-rule="evenodd" d="M29.8867 229.292H232.605V242H29.8867V229.292Z" fill="white"/>
</mask>
<g mask="url(#mask1_1_8)">
<path fill-rule="evenodd" clip-rule="evenodd" d="M232.605 235.646C232.605 239.155 187.225 242 131.246 242C75.2667 242 29.8867 239.155 29.8867 235.646C29.8867 232.137 75.2667 229.292 131.246 229.292C187.225 229.292 232.605 232.137 232.605 235.646Z" fill="#F5F5F5"/>
</g>
<path fill-rule="evenodd" clip-rule="evenodd" d="M42.5057 70.9867H43.2514V0H42.5057V70.9867Z" fill="#1A2E35"/>
<path fill-rule="evenodd" clip-rule="evenodd" d="M95.4514 70.9867H96.1971V0H95.4514V70.9867Z" fill="#1A2E35"/>
<path fill-rule="evenodd" clip-rule="evenodd" d="M32.8114 62.1133H107.383V43.56H32.8114V62.1133Z" fill="#1A2E35"/>
<path fill-rule="evenodd" clip-rule="evenodd" d="M32.8114 62.1133H107.383V43.56H32.8114V62.1133Z" fill="white"/>
<path fill-rule="evenodd" clip-rule="evenodd" d="M41.1872 52.7282L39.2759 50.82H36.6346L38.9344 53.1155H34.3029V54.9789H38.936L36.6346 57.2733H39.2759L41.1872 55.3652L42.5057 54.044L41.1872 52.7282Z" fill="white"/>
<path fill-rule="evenodd" clip-rule="evenodd" d="M75.96 56.8028H102.547V51.2406H75.96V56.8028Z" fill="#1A2E35"/>
<path fill-rule="evenodd" clip-rule="evenodd" d="M60.5511 56.8028H71.938V51.2406H60.5511V56.8028Z" fill="#1A2E35"/>
<path fill-rule="evenodd" clip-rule="evenodd" d="M45.4886 59.6933H55.9286V48.4H45.4886V59.6933Z" fill="white"/>
<mask id="mask2_1_8" style="mask-type:alpha" maskUnits="userSpaceOnUse" x="0" y="0" width="261" height="242">
<path fill-rule="evenodd" clip-rule="evenodd" d="M0 242H261V0.248215H0V242Z" fill="white"/>
</mask>
<g mask="url(#mask2_1_8)">
<path fill-rule="evenodd" clip-rule="evenodd" d="M46.5561 58.1354H55.2746V57.2166H46.5561V58.1354Z" fill="#1A2E35"/>
<path fill-rule="evenodd" clip-rule="evenodd" d="M32.258 86.9594H106.739V68.6064H32.258V86.9594Z" fill="#1A2E35"/>
<path fill-rule="evenodd" clip-rule="evenodd" d="M32.258 86.9594H106.739V68.6064H32.258V86.9594Z" fill="white"/>
<path fill-rule="evenodd" clip-rule="evenodd" d="M36.0142 76.4L37.8605 74.4001H40.412L38.1909 76.806H42.665V78.759H38.1888L40.412 81.1637H37.8605L36.0142 79.1638L34.741 77.7791L36.0142 76.4Z" fill="white"/>
<path fill-rule="evenodd" clip-rule="evenodd" d="M75.6963 80.4633H102.47V75.1025H75.6963V80.4633Z" fill="#1A2E35"/>
<path fill-rule="evenodd" clip-rule="evenodd" d="M60.1793 80.4633H71.6461V75.1025H60.1793V80.4633Z" fill="#1A2E35"/>
<path fill-rule="evenodd" clip-rule="evenodd" d="M45.8655 83.252H55.9647V72.3128H45.8655V83.252Z" fill="white"/>
<path fill-rule="evenodd" clip-rule="evenodd" d="M46.5561 81.9447H55.2746V81.0259H46.5561V81.9447Z" fill="#1A2E35"/>
</g>
<path fill-rule="evenodd" clip-rule="evenodd" d="M170.493 62.92L166.294 60.2103L168.738 59.6933L175.243 61.0858L170.493 62.92Z" fill="#1A2E35"/>
<path fill-rule="evenodd" clip-rule="evenodd" d="M145.264 76.4041C151.651 91.3068 167.311 99.4156 150.986 107.651C134.663 115.887 133.05 93.3277 133.526 86.4554C134.001 79.5831 141.812 68.351 145.264 76.4041Z" fill="#1A2E35"/>
<path fill-rule="evenodd" clip-rule="evenodd" d="M157.427 97.588C157.418 97.588 157.409 97.5869 157.399 97.5847C157.328 97.5683 157.282 97.4922 157.297 97.4144C158.142 93.1279 155.182 89.9568 151.755 86.2844C149.201 83.5469 146.306 80.4445 144.778 76.4586C144.029 74.5049 143.018 73.6563 141.776 73.932C138.438 74.6768 134.682 82.9503 134.752 87.786C134.753 87.8655 134.694 87.9309 134.621 87.932C134.546 87.9275 134.487 87.87 134.485 87.7905C134.416 82.8607 138.285 74.418 141.722 73.6506C142.675 73.4369 144.021 73.7335 145.024 76.3492C146.532 80.2816 149.406 83.3625 151.942 86.0803C155.425 89.8119 158.432 93.0349 157.557 97.4741C157.544 97.5418 157.489 97.588 157.427 97.588Z" fill="#1A2E35"/>
<path fill-rule="evenodd" clip-rule="evenodd" d="M132.881 81.5746C134.488 82.7502 137.245 78.219 138.571 72.2895C135.255 69.3389 133.24 69.7973 131.912 72.378C130.365 75.3874 131.043 80.2286 132.881 81.5746Z" fill="#1A2E35"/>
<path fill-rule="evenodd" clip-rule="evenodd" d="M127.388 174.969C127.388 174.969 149.804 170.041 166.128 174.167C161.337 166.419 141.024 132.094 141.024 132.094L131.367 144.489L127.388 174.969Z" fill="#1A2E35"/>
<path fill-rule="evenodd" clip-rule="evenodd" d="M127.388 174.969C127.388 174.969 149.804 170.041 166.128 174.167C161.337 166.419 141.024 132.094 141.024 132.094L131.367 144.489L127.388 174.969Z" fill="black"/>
<path fill-rule="evenodd" clip-rule="evenodd" d="M134.366 100.335C134.017 101.991 133.625 103.493 133.18 105.049C132.739 106.59 132.251 108.119 131.707 109.642C131.16 111.164 130.574 112.683 129.879 114.191C129.187 115.703 128.431 117.21 127.425 118.72C127.303 118.908 127.174 119.098 127.035 119.288C126.896 119.48 126.787 119.646 126.567 119.913C126.37 120.163 126.171 120.392 125.974 120.585C125.774 120.798 125.576 120.983 125.379 121.151C124.587 121.841 123.803 122.328 123.038 122.758C121.51 123.612 120.012 124.146 118.527 124.623C117.037 125.073 115.559 125.425 114.075 125.686C112.584 125.949 111.131 126.142 109.586 126.223L108.889 122.31C111.471 121.235 114.131 120.138 116.534 118.875C117.735 118.255 118.892 117.57 119.849 116.859C120.323 116.504 120.739 116.125 121.029 115.795C121.107 115.713 121.172 115.634 121.218 115.563C121.281 115.488 121.317 115.423 121.344 115.369L121.522 115.064C121.596 114.941 121.669 114.81 121.741 114.671C122.317 113.589 122.859 112.316 123.357 111.006C123.847 109.687 124.315 108.318 124.747 106.922C125.181 105.527 125.594 104.109 125.99 102.682C126.38 101.269 126.775 99.786 127.125 98.4322L134.366 100.335Z" fill="black"/>
<path fill-rule="evenodd" clip-rule="evenodd" d="M109.714 122.862L105.497 123.098L107.888 127.766C107.888 127.766 110.587 126.728 111.25 123.867L109.714 122.862Z" fill="#FFC4BE"/>
<path fill-rule="evenodd" clip-rule="evenodd" d="M102.388 126.078L105.8 128.975L107.888 127.766L105.497 123.098L102.388 126.078Z" fill="#FFC4BE"/>
<path fill-rule="evenodd" clip-rule="evenodd" d="M144.572 230.787L139.849 231.269L138.876 219.534L143.599 219.052L144.572 230.787Z" fill="#FFC4BE"/>
<path fill-rule="evenodd" clip-rule="evenodd" d="M181.588 213.438L178.158 216.915L170.751 208.129L174.181 204.651L181.588 213.438Z" fill="#FFC4BE"/>
<path fill-rule="evenodd" clip-rule="evenodd" d="M177.218 216.011L179.795 210.998C179.889 210.815 180.083 210.737 180.261 210.81L184.23 212.441C184.641 212.61 184.82 213.18 184.597 213.597C183.67 215.328 183.142 216.114 182.008 218.319C181.311 219.675 179.953 222.786 178.989 224.659C178.048 226.492 176.259 225.604 176.505 224.731C177.606 220.817 177.399 218.637 177.088 216.91C177.032 216.598 177.08 216.278 177.218 216.011Z" fill="black"/>
<path fill-rule="evenodd" clip-rule="evenodd" d="M139.222 229.745H144.831C145.035 229.745 145.219 229.898 145.274 230.114L146.494 234.904C146.62 235.401 146.282 235.858 145.81 235.863C143.833 235.882 142.896 235.873 140.429 235.873H132.889C130.839 235.873 130.411 233.635 131.259 233.434C135.062 232.525 137.254 231.272 138.427 230.077C138.639 229.862 138.923 229.745 139.222 229.745Z" fill="black"/>
<path fill-rule="evenodd" clip-rule="evenodd" d="M138.878 219.537L139.378 225.586H144.143L143.602 219.055L138.878 219.537Z" fill="black"/>
<path fill-rule="evenodd" clip-rule="evenodd" d="M174.185 204.653L170.753 208.132L174.572 212.659L178.004 209.18L174.185 204.653Z" fill="black"/>
<path fill-rule="evenodd" clip-rule="evenodd" d="M127.029 100.532C127.342 104.365 128.524 111.971 132.053 127.048L151.186 125.262C150.267 117.521 149.835 112.507 151.622 97.8977C151.879 95.7957 150.432 93.8859 148.47 93.7697C147.111 93.6885 145.504 93.6429 143.89 93.7094C140.656 93.8425 138.01 93.9778 135.202 94.5208C133.469 94.8557 131.608 95.3451 130.121 95.7703C128.151 96.333 126.851 98.3415 127.029 100.532Z" fill="black"/>
<path fill-rule="evenodd" clip-rule="evenodd" d="M142.182 83.2298C141.876 86.2983 141.772 91.8783 143.889 93.7091C143.889 93.7091 144.058 96.8791 138.093 97.9149C133.906 97.5298 135.202 94.5205 135.202 94.5205C138.254 93.4261 137.974 90.9372 137.243 88.6434L142.182 83.2298Z" fill="#FFC4BE"/>
<path fill-rule="evenodd" clip-rule="evenodd" d="M140.169 85.4384L137.245 88.6406C137.42 89.183 137.567 89.7367 137.647 90.2797C138.822 89.9831 140.525 88.6637 140.544 87.3065C140.552 86.6287 140.295 85.7418 140.169 85.4384Z" fill="black"/>
<path fill-rule="evenodd" clip-rule="evenodd" d="M144.683 78.4353C143.498 83.3364 143.093 85.4384 140.307 87.4926C136.118 90.5819 130.801 87.938 130.606 82.7528C130.43 78.0857 132.399 70.8548 137.257 69.8348C142.044 68.83 145.869 73.5343 144.683 78.4353Z" fill="#FFC4BE"/>
<path fill-rule="evenodd" clip-rule="evenodd" d="M134.75 69.4431C132.823 71.5339 136.851 76.815 143.535 81.4753C148.71 78.0916 146.936 73.5587 144.569 70.9892C142.249 68.4699 136.957 67.0501 134.75 69.4431Z" fill="#1A2E35"/>
<path fill-rule="evenodd" clip-rule="evenodd" d="M136.554 74.8749C136.52 74.8749 136.486 74.8608 136.46 74.8326C134.329 72.5366 133.498 70.7943 133.992 69.6553C134.718 67.9795 137.996 68.2817 138.134 68.2953C138.208 68.3026 138.262 68.372 138.255 68.4509C138.249 68.5298 138.187 68.5873 138.11 68.5811C138.079 68.5783 134.88 68.2834 134.233 69.7771C133.798 70.7808 134.633 72.4588 136.648 74.6296C136.7 74.6855 136.7 74.7768 136.648 74.8326C136.622 74.8608 136.588 74.8749 136.554 74.8749Z" fill="#1A2E35"/>
<path fill-rule="evenodd" clip-rule="evenodd" d="M145.058 82.8601C144.612 83.7932 143.807 84.4163 143.042 84.665C141.89 85.0394 141.291 83.9336 141.591 82.7467C141.861 81.6788 142.786 80.197 143.951 80.3424C145.099 80.4857 145.569 81.7932 145.058 82.8601Z" fill="#FFC4BE"/>
<path fill-rule="evenodd" clip-rule="evenodd" d="M132.053 127.048C132.053 127.048 126.526 157.938 130.848 179.731C133.742 194.325 137.454 223.832 137.454 223.832L145.615 223.606C145.615 223.606 143.493 192.664 141.859 180.496C139.065 159.68 146.064 125.74 146.064 125.74L132.053 127.048Z" fill="black"/>
<path fill-rule="evenodd" clip-rule="evenodd" d="M139.518 133.29L143.598 140.237C142.56 147.441 141.527 156.45 141.263 165.12C135.525 154.03 138.242 139.161 139.518 133.29Z" fill="black"/>
<path fill-rule="evenodd" clip-rule="evenodd" d="M136.735 224.173L146.351 224.145L146.321 220.67L136.139 220.526L136.735 224.173Z" fill="#1A2E35"/>
<path fill-rule="evenodd" clip-rule="evenodd" d="M136.236 126.719C136.236 126.719 140.034 159.501 148.266 177.398C154.915 191.854 172.657 212.432 172.657 212.432L177.194 207.387C177.194 207.387 165.209 185.023 160.268 175.421C148.151 151.875 158.054 133.907 151.186 125.262L136.236 126.719Z" fill="black"/>
<path fill-rule="evenodd" clip-rule="evenodd" d="M172.198 213.107L178.052 206.947L176.11 204.095L169.902 210.783L172.198 213.107Z" fill="#1A2E35"/>
<path fill-rule="evenodd" clip-rule="evenodd" d="M151.375 124.023L152.386 125.792C152.465 125.929 152.319 126.09 152.098 126.11L132.032 127.983C131.86 128 131.71 127.922 131.69 127.806L131.369 125.973C131.347 125.846 131.488 125.724 131.676 125.706L151.051 123.897C151.194 123.884 151.325 123.935 151.375 124.023Z" fill="white"/>
<path fill-rule="evenodd" clip-rule="evenodd" d="M148.961 126.605L149.48 126.556C149.583 126.547 149.657 126.482 149.644 126.412L149.209 124.033C149.196 123.964 149.101 123.915 148.997 123.924L148.478 123.973C148.375 123.982 148.301 124.047 148.314 124.116L148.75 126.496C148.763 126.565 148.857 126.614 148.961 126.605Z" fill="#1A2E35"/>
<path fill-rule="evenodd" clip-rule="evenodd" d="M133.507 128.048L134.026 127.999C134.129 127.99 134.203 127.925 134.191 127.855L133.755 125.476C133.742 125.406 133.647 125.357 133.544 125.367L133.025 125.416C132.922 125.425 132.847 125.489 132.86 125.559L133.296 127.938C133.309 128.008 133.404 128.057 133.507 128.048Z" fill="#1A2E35"/>
<path fill-rule="evenodd" clip-rule="evenodd" d="M141.234 127.326L141.753 127.278C141.856 127.268 141.93 127.203 141.918 127.133L141.482 124.755C141.469 124.685 141.374 124.636 141.27 124.645L140.752 124.694C140.648 124.704 140.574 124.768 140.587 124.838L141.023 127.217C141.036 127.287 141.13 127.336 141.234 127.326Z" fill="#1A2E35"/>
<path fill-rule="evenodd" clip-rule="evenodd" d="M136.997 78.2671C136.923 78.6714 136.665 78.9567 136.421 78.9049C136.176 78.853 136.037 78.4831 136.111 78.0794C136.185 77.6751 136.442 77.3898 136.687 77.4417C136.932 77.4935 137.07 77.8634 136.997 78.2671Z" fill="#1A2E35"/>
<path fill-rule="evenodd" clip-rule="evenodd" d="M132.767 77.3696C132.693 77.7733 132.435 78.0592 132.191 78.0067C131.946 77.9554 131.807 77.5855 131.881 77.1818C131.954 76.7775 132.212 76.4922 132.457 76.5441C132.701 76.596 132.84 76.9659 132.767 77.3696Z" fill="#1A2E35"/>
<path fill-rule="evenodd" clip-rule="evenodd" d="M132.561 76.5896L131.713 76.1193C131.713 76.1193 132.036 76.9747 132.561 76.5896Z" fill="#1A2E35"/>
<path fill-rule="evenodd" clip-rule="evenodd" d="M134.221 78.3764C134.221 78.3764 133.269 79.9812 132.417 80.6719C132.821 81.2741 133.702 81.225 133.702 81.225L134.221 78.3764Z" fill="#FF857F"/>
<path fill-rule="evenodd" clip-rule="evenodd" d="M135.432 83.1505C136.758 83.1505 137.527 82.316 137.565 82.2748C137.601 82.2348 137.6 82.1716 137.563 82.1327C137.526 82.0938 137.467 82.0944 137.431 82.1344C137.421 82.1451 136.415 83.2289 134.769 82.8781C134.717 82.8663 134.67 82.9035 134.66 82.9571C134.65 83.0118 134.683 83.0648 134.733 83.0755C134.98 83.1279 135.214 83.1505 135.432 83.1505Z" fill="#1A2E35"/>
<path fill-rule="evenodd" clip-rule="evenodd" d="M139.537 76.7009C139.57 76.7009 139.603 76.6913 139.634 76.6715C139.722 76.6146 139.75 76.4911 139.697 76.3958C139.066 75.2698 138.053 75.2202 138.01 75.219C137.901 75.223 137.822 75.3019 137.818 75.4119C137.814 75.5224 137.894 75.616 137.996 75.6205C138.031 75.6216 138.855 75.6701 139.378 76.6039C139.413 76.6659 139.474 76.7009 139.537 76.7009Z" fill="#1A2E35"/>
<path fill-rule="evenodd" clip-rule="evenodd" d="M131.592 75.0828C131.623 75.0828 131.654 75.0743 131.683 75.0574C132.573 74.5206 133.326 74.9356 133.333 74.9401C133.425 74.992 133.537 74.9536 133.585 74.8555C133.632 74.7574 133.597 74.6362 133.507 74.5843C133.469 74.5623 132.565 74.0644 131.501 74.7061C131.411 74.7602 131.379 74.8832 131.429 74.9796C131.463 75.0455 131.527 75.0828 131.592 75.0828Z" fill="#1A2E35"/>
<path fill-rule="evenodd" clip-rule="evenodd" d="M143.598 93.1334C143.598 93.1334 142.816 98.5768 142.884 107.451C142.928 113.318 141.546 139.564 148.979 170.4C160.864 170.473 166.127 174.167 166.127 174.167C166.127 174.167 154.603 123.965 153.145 98.0147C152.999 95.4288 151.098 93.3713 148.703 93.2089C146.341 93.0493 143.598 93.1334 143.598 93.1334Z" fill="black"/>
<path fill-rule="evenodd" clip-rule="evenodd" d="M155.614 135.895C155.582 135.895 155.551 135.886 155.521 135.868C152.182 133.717 148.764 127.685 148.62 127.429C148.568 127.337 148.595 127.216 148.682 127.16C148.768 127.104 148.879 127.133 148.931 127.226C148.966 127.288 152.447 133.43 155.708 135.531C155.794 135.586 155.822 135.706 155.77 135.8C155.737 135.861 155.676 135.895 155.614 135.895Z" fill="white"/>
<path fill-rule="evenodd" clip-rule="evenodd" d="M153.801 105.815L149.942 102.161C149.942 102.161 151.629 110.044 155.036 115.75C154.552 112.302 154.126 108.964 153.801 105.815Z" fill="black"/>
<path fill-rule="evenodd" clip-rule="evenodd" d="M134.617 94.132C134.617 94.132 134.192 99.5664 134.192 113.544C134.192 127.031 135.735 146.46 133.362 170.92C129.517 171.941 127.388 174.969 127.388 174.969C127.388 174.969 130.595 130.562 126.91 100.469C126.592 97.8709 128.374 95.514 130.76 95.0296C133.079 94.5594 134.617 94.132 134.617 94.132Z" fill="black"/>
<path fill-rule="evenodd" clip-rule="evenodd" d="M171.795 138.85L160.285 142.084L159.22 137.668L170.73 134.434L171.795 138.85Z" fill="#1A2E35"/>
<path fill-rule="evenodd" clip-rule="evenodd" d="M171.596 138.026L160.086 141.26L159.895 140.465L171.404 137.231L171.596 138.026Z" fill="white"/>
<path fill-rule="evenodd" clip-rule="evenodd" d="M171.249 139.047L161.374 141.278L160.355 136.022L170.23 133.791L171.249 139.047Z" fill="#1A2E35"/>
<path fill-rule="evenodd" clip-rule="evenodd" d="M161.652 132.769L160.836 137.241L164.746 136.175C164.746 136.175 165.012 133.099 163.404 131.878L161.652 132.769Z" fill="#FFC4BE"/>
<path fill-rule="evenodd" clip-rule="evenodd" d="M161.831 139.573L165.762 139.159L164.746 136.175L160.836 137.241L161.831 139.573Z" fill="#FFC4BE"/>
<path fill-rule="evenodd" clip-rule="evenodd" d="M151.709 94.7016C152.855 95.9793 153.873 97.2378 154.904 98.555C155.92 99.8727 156.921 101.207 157.869 102.607C158.827 104.004 159.752 105.43 160.624 106.96C161.059 107.733 161.494 108.495 161.889 109.345L162.19 109.969L162.477 110.636L162.759 111.309C162.853 111.529 162.949 111.816 163.041 112.067C163.382 113.08 163.594 114.001 163.769 114.913C163.942 115.82 164.08 116.706 164.196 117.581C164.419 119.331 164.55 121.051 164.641 122.763C164.808 126.189 164.806 129.555 164.579 132.976L160.892 133.187C160.298 129.97 159.74 126.708 159.119 123.54C158.811 121.954 158.478 120.385 158.111 118.872C157.929 118.116 157.732 117.378 157.519 116.676C157.303 115.98 157.077 115.304 156.842 114.774C156.777 114.645 156.739 114.541 156.657 114.392L156.419 113.951L156.181 113.508L155.904 113.052C155.55 112.448 155.133 111.823 154.729 111.203C153.898 109.961 152.974 108.726 152.051 107.489C150.191 105.035 148.178 102.561 146.257 100.187L151.709 94.7016Z" fill="black"/>
<path fill-rule="evenodd" clip-rule="evenodd" d="M177.351 216.877C177.091 217.773 176.755 218.367 176.436 218.483C176.298 218.533 176.161 218.499 176.014 218.38C175.93 218.311 175.925 218.244 175.928 218.199C175.958 217.807 176.836 217.192 177.351 216.877ZM176.313 218.707C176.374 218.707 176.434 218.695 176.495 218.674C177.057 218.469 177.424 217.348 177.594 216.699C177.604 216.66 177.592 216.619 177.563 216.593C177.534 216.568 177.494 216.564 177.461 216.583C177.29 216.679 175.791 217.545 175.742 218.183C175.735 218.28 175.757 218.421 175.903 218.54C176.039 218.651 176.176 218.707 176.313 218.707Z" fill="#1A2E35"/>
<path fill-rule="evenodd" clip-rule="evenodd" d="M177.299 216.671C176.791 216.905 175.807 217.048 175.529 216.795C175.483 216.753 175.437 216.683 175.496 216.527C175.541 216.408 175.62 216.328 175.735 216.284C176.171 216.116 176.962 216.492 177.299 216.671ZM176.081 217.129C176.613 217.129 177.266 216.947 177.553 216.757C177.581 216.739 177.598 216.705 177.597 216.67C177.596 216.634 177.578 216.601 177.549 216.584C177.499 216.554 176.312 215.849 175.674 216.095C175.506 216.158 175.389 216.278 175.324 216.452C175.222 216.722 175.333 216.879 175.409 216.948C175.55 217.078 175.799 217.129 176.081 217.129Z" fill="#1A2E35"/>
<path fill-rule="evenodd" clip-rule="evenodd" d="M137.944 230.381C137.34 230.502 136.222 230.661 135.762 230.286C135.635 230.182 135.568 230.045 135.558 229.868C135.554 229.786 135.584 229.754 135.61 229.735C135.896 229.525 137.099 229.979 137.944 230.381ZM136.733 230.725C137.271 230.725 137.857 230.613 138.264 230.515C138.303 230.506 138.332 230.471 138.336 230.428C138.341 230.386 138.32 230.344 138.284 230.326C138.053 230.209 136.018 229.194 135.505 229.569C135.44 229.616 135.364 229.709 135.373 229.879C135.386 230.116 135.479 230.306 135.65 230.446C135.904 230.653 136.303 230.725 136.733 230.725Z" fill="#1A2E35"/>
<path fill-rule="evenodd" clip-rule="evenodd" d="M136.849 228.468C137.555 228.468 137.966 229.729 138.102 230.234C137.439 229.86 136.522 228.956 136.566 228.603C136.569 228.577 136.579 228.498 136.772 228.474C136.798 228.47 136.823 228.468 136.849 228.468ZM138.244 230.518C138.266 230.518 138.287 230.51 138.304 230.494C138.33 230.47 138.342 230.431 138.334 230.395C138.315 230.302 137.853 228.136 136.749 228.274C136.472 228.31 136.397 228.458 136.382 228.576C136.313 229.128 137.596 230.24 138.209 230.51C138.22 230.515 138.232 230.518 138.244 230.518Z" fill="#1A2E35"/>
<path fill-rule="evenodd" clip-rule="evenodd" d="M136.791 77.4872L135.943 77.0169C135.943 77.0169 136.267 77.8723 136.791 77.4872Z" fill="#1A2E35"/>
<path fill-rule="evenodd" clip-rule="evenodd" d="M144.993 92.9954L143.542 93.0355C143.459 93.0377 143.389 93.0997 143.373 93.1866C143.191 94.175 142.215 100.111 142.85 110.779C143.472 107.668 144.991 101.083 145.634 99.6467C145.08 99.1922 144.192 98.4259 144.192 98.4259L145.821 97.3005L145.172 93.155C145.157 93.0608 145.08 92.9932 144.993 92.9954Z" fill="#1A2E35"/>
<path fill-rule="evenodd" clip-rule="evenodd" d="M144.993 92.9954L143.542 93.0355C143.459 93.0377 143.389 93.0997 143.373 93.1866C143.191 94.175 142.215 100.111 142.85 110.779C143.472 107.668 144.991 101.083 145.634 99.6467C145.08 99.1922 144.192 98.4259 144.192 98.4259L145.821 97.3005L145.172 93.155C145.157 93.0608 145.08 92.9932 144.993 92.9954Z" fill="white"/>
<path fill-rule="evenodd" clip-rule="evenodd" d="M133.027 94.2936L134.746 93.9699C134.746 93.9699 134.896 99.2719 134.197 111.003C133.576 107.89 132.282 101.443 132.209 99.6469C132.763 99.1924 133.65 98.4261 133.65 98.4261L132.022 97.3006L133.027 94.2936Z" fill="#1A2E35"/>
<path fill-rule="evenodd" clip-rule="evenodd" d="M133.027 94.2936L134.746 93.9699C134.746 93.9699 134.896 99.2719 134.197 111.003C133.576 107.89 132.282 101.443 132.209 99.6469C132.763 99.1924 133.65 98.4261 133.65 98.4261L132.022 97.3006L133.027 94.2936Z" fill="white"/>
<path fill-rule="evenodd" clip-rule="evenodd" d="M110.842 166.979H91.1452C86.4157 166.979 82.5461 171.156 82.5461 176.262V221.044C82.5461 226.149 86.4157 230.326 91.1452 230.326H110.842C115.571 230.326 119.44 226.149 119.44 221.044V176.262C119.44 171.156 115.571 166.979 110.842 166.979Z" fill="black"/>
<path fill-rule="evenodd" clip-rule="evenodd" d="M103.591 124.854H98.3954C95.2037 124.854 92.5925 127.672 92.5925 131.118V191.652C92.5925 195.097 95.2037 197.916 98.3954 197.916H103.591C106.783 197.916 109.394 195.097 109.394 191.652V131.118C109.394 127.672 106.783 124.854 103.591 124.854ZM103.591 125.866C106.274 125.866 108.456 128.222 108.456 131.118V191.652C108.456 194.548 106.274 196.903 103.591 196.903H98.3954C95.713 196.903 93.5311 194.548 93.5311 191.652V131.118C93.5311 128.222 95.713 125.866 98.3954 125.866H103.591Z" fill="#1A2E35"/>
<path fill-rule="evenodd" clip-rule="evenodd" d="M114.405 231.043C114.405 232.348 113.425 233.406 112.216 233.406C111.006 233.406 110.026 232.348 110.026 231.043C110.026 229.738 111.006 228.68 112.216 228.68C113.425 228.68 114.405 229.738 114.405 231.043Z" fill="#1A2E35"/>
<path fill-rule="evenodd" clip-rule="evenodd" d="M106.701 231.043C106.701 232.348 105.721 233.406 104.512 233.406C103.303 233.406 102.322 232.348 102.322 231.043C102.322 229.738 103.303 228.68 104.512 228.68C105.721 228.68 106.701 229.738 106.701 231.043Z" fill="#1A2E35"/>
<path fill-rule="evenodd" clip-rule="evenodd" d="M94.1041 231.043C94.1041 232.348 93.1242 233.406 91.9149 233.406C90.7057 233.406 89.7252 232.348 89.7252 231.043C89.7252 229.738 90.7057 228.68 91.9149 228.68C93.1242 228.68 94.1041 229.738 94.1041 231.043Z" fill="#1A2E35"/>
<path fill-rule="evenodd" clip-rule="evenodd" d="M86.4006 231.043C86.4006 232.348 85.4206 233.406 84.2114 233.406C83.0021 233.406 82.0216 232.348 82.0216 231.043C82.0216 229.738 83.0021 228.68 84.2114 228.68C85.4206 228.68 86.4006 229.738 86.4006 231.043Z" fill="#1A2E35"/>
<path fill-rule="evenodd" clip-rule="evenodd" d="M105.281 166.979H85.5846C80.8552 166.979 76.9855 171.156 76.9855 176.262V221.044C76.9855 226.149 80.8552 230.326 85.5846 230.326H105.281C110.011 230.326 113.88 226.149 113.88 221.044V176.262C113.88 171.156 110.011 166.979 105.281 166.979Z" fill="#1A2E35"/>
<path fill-rule="evenodd" clip-rule="evenodd" d="M105.281 166.979H85.5846C80.8552 166.979 76.9855 171.156 76.9855 176.262V221.044C76.9855 226.149 80.8552 230.326 85.5846 230.326H105.281C110.011 230.326 113.88 226.149 113.88 221.044V176.262C113.88 171.156 110.011 166.979 105.281 166.979Z" fill="white"/>
<path fill-rule="evenodd" clip-rule="evenodd" d="M101.396 172.881H85.3692C81.5215 172.881 78.3727 176.28 78.3727 180.434V216.871C78.3727 221.025 81.5215 224.424 85.3692 224.424H101.396C105.244 224.424 108.393 221.025 108.393 216.871V180.434C108.393 176.28 105.244 172.881 101.396 172.881Z" fill="black"/>
<path fill-rule="evenodd" clip-rule="evenodd" d="M83.4562 177.12C82.6157 177.12 81.9325 177.858 81.9325 178.765V218.54C81.9325 219.447 82.6157 220.185 83.4562 220.185C84.2967 220.185 84.9799 219.447 84.9799 218.54V178.765C84.9799 177.858 84.2967 177.12 83.4562 177.12ZM83.4562 220.692C82.3571 220.692 81.4629 219.727 81.4629 218.54V178.765C81.4629 177.578 82.3571 176.614 83.4562 176.614C84.5552 176.614 85.4495 177.578 85.4495 178.765V218.54C85.4495 219.727 84.5552 220.692 83.4562 220.692Z" fill="white"/>
<path fill-rule="evenodd" clip-rule="evenodd" d="M103.376 177.12C102.536 177.12 101.853 177.858 101.853 178.765V218.54C101.853 219.447 102.536 220.185 103.376 220.185C104.217 220.185 104.9 219.447 104.9 218.54V178.765C104.9 177.858 104.217 177.12 103.376 177.12ZM103.376 220.692C102.277 220.692 101.383 219.727 101.383 218.54V178.765C101.383 177.578 102.277 176.614 103.376 176.614C104.475 176.614 105.37 177.578 105.37 178.765V218.54C105.37 219.727 104.475 220.692 103.376 220.692Z" fill="white"/>
<path fill-rule="evenodd" clip-rule="evenodd" d="M96.7363 177.12C95.8958 177.12 95.2126 177.858 95.2126 178.765V218.54C95.2126 219.447 95.8958 220.185 96.7363 220.185C97.5768 220.185 98.26 219.447 98.26 218.54V178.765C98.26 177.858 97.5768 177.12 96.7363 177.12ZM96.7363 220.692C95.6373 220.692 94.743 219.727 94.743 218.54V178.765C94.743 177.578 95.6373 176.614 96.7363 176.614C97.8353 176.614 98.7296 177.578 98.7296 178.765V218.54C98.7296 219.727 97.8353 220.692 96.7363 220.692Z" fill="white"/>
<path fill-rule="evenodd" clip-rule="evenodd" d="M90.0961 177.12C89.2556 177.12 88.5724 177.858 88.5724 178.765V218.54C88.5724 219.447 89.2556 220.185 90.0961 220.185C90.9366 220.185 91.6198 219.447 91.6198 218.54V178.765C91.6198 177.858 90.9366 177.12 90.0961 177.12ZM90.0961 220.692C88.9971 220.692 88.1028 219.727 88.1028 218.54V178.765C88.1028 177.578 88.9971 176.614 90.0961 176.614C91.1952 176.614 92.0894 177.578 92.0894 178.765V218.54C92.0894 219.727 91.1952 220.692 90.0961 220.692Z" fill="white"/>
</svg>
