<svg width="23" height="25" viewBox="0 0 23 25" fill="none" xmlns="http://www.w3.org/2000/svg">
<path fill-rule="evenodd" clip-rule="evenodd" d="M3.32235 16.6986L3.47461 16.7996C4.17091 16.3724 4.95701 16.1909 5.78199 16.2689C6.84751 16.3697 7.77153 16.8884 8.43531 17.3288C9.0991 17.7691 9.93631 18.4188 10.4434 19.3613C10.8361 20.091 10.9745 20.8858 10.8516 21.6934L11.0039 21.7945L16.0246 14.2263L15.8226 14.0923C15.3624 13.787 15.2368 13.1664 15.5421 12.7062C15.8474 12.246 16.468 12.1204 16.9283 12.4257L17.1302 12.5597L20.2425 7.86811L20.0903 7.7671C19.3939 8.1943 18.6078 8.37584 17.7829 8.29781C16.7174 8.19703 15.7933 7.67826 15.1295 7.23791C14.4658 6.79756 13.6286 6.14793 13.1214 5.20544C12.7288 4.4757 12.5904 3.68087 12.7133 2.87325L12.561 2.77224L9.44866 7.46379L10.044 7.85876C10.5043 8.16407 10.6298 8.78465 10.3245 9.24488C10.0192 9.7051 9.39864 9.83068 8.93842 9.52537L8.34304 9.1304L3.32235 16.6986ZM0.868163 16.7801C0.692507 17.0449 0.726234 17.3764 0.943493 17.5206L3.28053 19.0709C3.51064 19.2236 3.8169 19.1566 4.00016 18.95C4.99112 17.8329 6.14869 18.2119 7.32969 18.9954C8.51069 19.7789 9.30994 20.698 8.66606 22.0453C8.54699 22.2945 8.60433 22.6027 8.83444 22.7554L11.1715 24.3057C11.3887 24.4499 11.7072 24.352 11.8829 24.0873L22.6967 7.78655C22.8724 7.52177 22.8386 7.19028 22.6214 7.04615L20.2843 5.49578C20.0542 5.34312 19.748 5.41013 19.5647 5.61671C18.5737 6.73377 17.4162 6.35476 16.2352 5.57129C15.0542 4.78783 14.2549 3.86869 14.8988 2.52137C15.0179 2.27222 14.9605 1.964 14.7304 1.81135L12.3934 0.260974C12.1761 0.116845 11.8576 0.214655 11.682 0.479437L0.868163 16.7801ZM12.7977 9.68554C12.3375 9.38023 11.7169 9.50581 11.4116 9.96604C11.1063 10.4263 11.2319 11.0468 11.6921 11.3522L13.069 12.2655C13.5292 12.5709 14.1498 12.4453 14.4551 11.985C14.7604 11.5248 14.6348 10.9042 14.1746 10.5989L12.7977 9.68554Z" fill="white"/>
</svg>
