<svg width="248" height="46" viewBox="0 0 248 46" fill="none" xmlns="http://www.w3.org/2000/svg">
<path d="M53.452 35V9.8H57.412L65.476 29.096L73.504 9.8H77.464V35H73.504V18.332L67.024 35H63.892L57.412 18.152V35H53.452ZM86.7657 14.984C86.2137 15.536 85.5177 15.812 84.6777 15.812C83.8377 15.812 83.1417 15.536 82.5897 14.984C82.0377 14.408 81.7617 13.712 81.7617 12.896C81.7617 12.08 82.0377 11.396 82.5897 10.844C83.1417 10.268 83.8377 9.98 84.6777 9.98C85.5177 9.98 86.2137 10.268 86.7657 10.844C87.3177 11.396 87.5937 12.08 87.5937 12.896C87.5937 13.712 87.3177 14.408 86.7657 14.984ZM82.6977 35V18.224H86.6217V35H82.6977ZM101.131 9.8C103.651 9.8 105.715 10.628 107.323 12.284C108.955 13.94 109.771 16.052 109.771 18.62C109.771 21.188 108.955 23.3 107.323 24.956C105.715 26.612 103.651 27.44 101.131 27.44H95.9826V35H91.8426V9.8H101.131ZM100.879 23.732C102.247 23.732 103.375 23.252 104.263 22.292C105.175 21.308 105.631 20.084 105.631 18.62C105.631 17.156 105.175 15.944 104.263 14.984C103.375 14 102.247 13.508 100.879 13.508H95.9826V23.732H100.879ZM119.635 35.432C117.019 35.432 114.991 34.604 113.551 32.948C112.111 31.292 111.391 29.18 111.391 26.612C111.391 24.068 112.147 21.968 113.659 20.312C115.171 18.632 117.199 17.792 119.743 17.792C120.871 17.792 121.903 18.032 122.839 18.512C123.775 18.992 124.495 19.652 124.999 20.492V18.224H128.923V35H124.999V32.732C124.519 33.548 123.763 34.208 122.731 34.712C121.723 35.192 120.691 35.432 119.635 35.432ZM120.211 31.94C121.819 31.94 123.043 31.436 123.883 30.428C124.747 29.42 125.179 28.148 125.179 26.612C125.179 25.076 124.747 23.804 123.883 22.796C123.043 21.788 121.819 21.284 120.211 21.284C118.699 21.284 117.499 21.788 116.611 22.796C115.747 23.78 115.315 25.052 115.315 26.612C115.315 28.172 115.747 29.456 116.611 30.464C117.499 31.448 118.699 31.94 120.211 31.94ZM139.824 35.432C137.712 35.432 135.996 34.892 134.676 33.812C133.356 32.732 132.696 31.412 132.696 29.852H136.62C136.62 30.572 136.932 31.16 137.556 31.616C138.204 32.072 139.032 32.3 140.04 32.3C140.784 32.3 141.372 32.12 141.804 31.76C142.236 31.4 142.452 30.92 142.452 30.32C142.452 29.36 142.032 28.772 141.192 28.556L136.872 27.368C134.448 26.696 133.236 25.148 133.236 22.724C133.236 21.332 133.836 20.168 135.036 19.232C136.236 18.272 137.784 17.792 139.68 17.792C141.816 17.792 143.448 18.272 144.576 19.232C145.728 20.192 146.304 21.452 146.304 23.012H142.452C142.452 22.316 142.188 21.776 141.66 21.392C141.156 20.984 140.448 20.78 139.536 20.78C138.84 20.78 138.264 20.948 137.808 21.284C137.352 21.596 137.124 22.004 137.124 22.508C137.124 23.42 137.604 24.02 138.564 24.308L142.56 25.46C143.712 25.796 144.648 26.372 145.368 27.188C146.088 27.98 146.448 28.904 146.448 29.96C146.448 31.592 145.86 32.912 144.684 33.92C143.532 34.928 141.912 35.432 139.824 35.432ZM157.393 35.432C154.777 35.432 152.749 34.604 151.309 32.948C149.869 31.292 149.149 29.18 149.149 26.612C149.149 24.068 149.905 21.968 151.417 20.312C152.929 18.632 154.957 17.792 157.501 17.792C158.629 17.792 159.661 18.032 160.597 18.512C161.533 18.992 162.253 19.652 162.757 20.492V18.224H166.681V35H162.757V32.732C162.277 33.548 161.521 34.208 160.489 34.712C159.481 35.192 158.449 35.432 157.393 35.432ZM157.969 31.94C159.577 31.94 160.801 31.436 161.641 30.428C162.505 29.42 162.937 28.148 162.937 26.612C162.937 25.076 162.505 23.804 161.641 22.796C160.801 21.788 159.577 21.284 157.969 21.284C156.457 21.284 155.257 21.788 154.369 22.796C153.505 23.78 153.073 25.052 153.073 26.612C153.073 28.172 153.505 29.456 154.369 30.464C155.257 31.448 156.457 31.94 157.969 31.94ZM175.889 14.984C175.337 15.536 174.641 15.812 173.801 15.812C172.961 15.812 172.265 15.536 171.713 14.984C171.161 14.408 170.885 13.712 170.885 12.896C170.885 12.08 171.161 11.396 171.713 10.844C172.265 10.268 172.961 9.98 173.801 9.98C174.641 9.98 175.337 10.268 175.889 10.844C176.441 11.396 176.717 12.08 176.717 12.896C176.717 13.712 176.441 14.408 175.889 14.984ZM171.137 42.776C170.057 42.776 169.289 42.656 168.833 42.416V38.924C169.289 39.02 169.781 39.068 170.309 39.068C171.317 39.068 171.821 38.492 171.821 37.34V18.224H175.745V38.492C175.745 39.884 175.349 40.94 174.557 41.66C173.765 42.404 172.625 42.776 171.137 42.776ZM195.976 25.748C195.976 26.18 195.94 26.9 195.868 27.908H183.412C183.46 29.228 183.892 30.248 184.708 30.968C185.524 31.664 186.652 32.012 188.092 32.012C189.94 32.012 191.188 31.376 191.836 30.104H195.796C195.532 31.664 194.68 32.948 193.24 33.956C191.824 34.94 190.108 35.432 188.092 35.432C185.452 35.432 183.364 34.64 181.828 33.056C180.292 31.472 179.524 29.324 179.524 26.612C179.524 23.924 180.28 21.788 181.792 20.204C183.328 18.596 185.38 17.792 187.948 17.792C190.348 17.792 192.28 18.536 193.744 20.024C195.232 21.488 195.976 23.396 195.976 25.748ZM183.412 24.92H192.124C192.1 23.624 191.716 22.628 190.972 21.932C190.252 21.236 189.22 20.888 187.876 20.888C186.508 20.888 185.428 21.26 184.636 22.004C183.844 22.748 183.436 23.72 183.412 24.92Z" fill="black"/>
<line x1="46" y1="22" x2="49" y2="22" stroke="#F6C203" stroke-width="4" stroke-linecap="round"/>
<path d="M19 19.5H39" stroke="#F6C203" stroke-width="4" stroke-linecap="round"/>
<line x1="32" y1="12" x2="51" y2="12" stroke="#F6C203" stroke-width="4" stroke-linecap="round"/>
<line x1="35" y1="31" x2="50" y2="31" stroke="#F6C203" stroke-width="4" stroke-linecap="round"/>
</svg>
